<svg xmlns="http://www.w3.org/2000/svg" xmlns:xlink="http://www.w3.org/1999/xlink" xmlns:lucid="lucid" width="780" height="220"><g transform="translate(-280 -440)" lucid:page-tab-id="hzt4iNAnizfa"><path d="M580 466c0-3.3 2.7-6 6-6h108c3.3 0 6 2.7 6 6v48c0 3.3-2.7 6-6 6H586c-3.3 0-6-2.7-6-6z" stroke="#007896" stroke-width="3" fill="#00acd7"/><use xlink:href="#a" transform="matrix(1,0,0,1,592,472) translate(19.63825757575758 26.027777777777775)"/><path d="M740 466c0-3.3 2.7-6 6-6h288c3.3 0 6 2.7 6 6v168c0 3.3-2.7 6-6 6H746c-3.3 0-6-2.7-6-6z" fill="none"/><path d="M740 640c5.52 0 10-4.48 10-10v-70c0-5.52 4.48-10 10-10-5.52 0-10-4.48-10-10v-70c0-5.52-4.48-10-10-10" stroke="#5e5e5e" stroke-width="3" fill="none"/><use xlink:href="#b" transform="matrix(1,0,0,1,775,465) translate(0 80.13383838383838)"/><use xlink:href="#c" transform="matrix(1,0,0,1,775,465) translate(31.81818181818182 80.13383838383838)"/><use xlink:href="#d" transform="matrix(1,0,0,1,775,465) translate(101.08901515151516 80.13383838383838)"/><use xlink:href="#e" transform="matrix(1,0,0,1,775,465) translate(151.65719696969697 80.13383838383838)"/><use xlink:href="#f" transform="matrix(1,0,0,1,775,465) translate(0 107.02777777777777)"/><use xlink:href="#g" transform="matrix(1,0,0,1,775,465) translate(32.51262626262626 107.02777777777777)"/><use xlink:href="#h" transform="matrix(1,0,0,1,775,465) translate(72.91666666666666 107.02777777777777)"/><use xlink:href="#i" transform="matrix(1,0,0,1,775,465) translate(156.34469696969697 107.02777777777777)"/><path d="M300 586c0-3.3 2.7-6 6-6h388c3.3 0 6 2.7 6 6v48c0 3.3-2.7 6-6 6H306c-3.3 0-6-2.7-6-6z" stroke="#007896" stroke-width="3" fill="#00acd7"/><use xlink:href="#j" transform="matrix(1,0,0,1,312,592) translate(170.9229797979798 26.027777777777775)"/><path d="M440 466c0-3.3 2.7-6 6-6h108c3.3 0 6 2.7 6 6v48c0 3.3-2.7 6-6 6H446c-3.3 0-6-2.7-6-6z" stroke="#007896" stroke-width="3" fill="#00acd7"/><use xlink:href="#k" transform="matrix(1,0,0,1,452,472) translate(26.58270202020202 26.027777777777775)"/><path d="M300 466c0-3.3 2.7-6 6-6h108c3.3 0 6 2.7 6 6v48c0 3.3-2.7 6-6 6H306c-3.3 0-6-2.7-6-6z" stroke="#007896" stroke-width="3" fill="#00acd7"/><use xlink:href="#l" transform="matrix(1,0,0,1,312,472) translate(19.46464646464647 26.027777777777775)"/><path d="M360 522.5V544c0 3.3 2.7 6 6 6h128c3.3 0 6 2.7 6 6v4" stroke="#5e5e5e" stroke-width="2" fill="none"/><path d="M361 522.53h-2v-1.03h2z" fill="#5e5e5e"/><path d="M500 575.26L495.36 561h9.28z" stroke="#5e5e5e" stroke-width="2" fill="#5e5e5e"/><path d="M500 522.5v35" stroke="#5e5e5e" stroke-width="2" fill="none"/><path d="M501 522.53h-2v-1.03h2z" fill="#5e5e5e"/><path d="M500 572.76l-4.64-14.26h9.28z" stroke="#5e5e5e" stroke-width="2" fill="#5e5e5e"/><path d="M640 522.5V544c0 3.3-2.7 6-6 6H506c-3.3 0-6 2.7-6 6v4" stroke="#5e5e5e" stroke-width="2" fill="none"/><path d="M641 522.53h-2v-1.03h2z" fill="#5e5e5e"/><path d="M500 575.26L495.36 561h9.28z" stroke="#5e5e5e" stroke-width="2" fill="#5e5e5e"/><defs><path fill="#fff" d="M728-176c184 3 360-85 360-240 0-133-100-185-228-216l-256-60c-141-33-244-86-310-156-120-119-130-353-24-494 95-127 270-214 490-214 302 0 467 146 544 364l-212 60c-51-127-146-220-332-220-162 0-326 82-328 228 0 59 21 105 64 139 86 72 291 106 428 141s240 84 307 152c125 117 132 357 25 500C1155-57 969 34 732 32c-311 1-533-140-584-400l224-56c41 161 158 245 356 248" id="m"/><path fill="#fff" d="M800-1556c244-6 359 127 444 264h28v-244h228V576h-236v-812h-20C1160-98 1040 38 796 32c-286-7-469-163-569-374-107-225-108-616 0-842 101-211 285-365 573-372zm417 1094c67-166 68-442 1-608-61-158-182-274-390-274-319 0-448 255-448 576 0 223 74 408 200 510 123 99 364 105 488 4 65-50 115-120 149-208" id="n"/><path fill="#fff" d="M452-2048V0H216v-2048h236" id="o"/><path fill="#fff" d="M216 0v-1536h236V0H216zm288-1952c0 86-81 160-168 160s-168-74-168-160 81-160 168-160 168 74 168 160" id="p"/><path fill="#fff" d="M884-1536v200H88v-200h796zM912-8C806 31 647 29 540-23 419-82 320-195 320-376v-1528h236v1464c-3 157 61 231 204 232 42 1 74-6 104-12" id="q"/><path fill="#fff" d="M1472-356c-81 240-294 384-612 388-314 0-521-155-630-374-113-227-112-601 0-830 106-217 302-384 606-384 475 0 684 339 660 868H312v-204h944c-7-269-152-447-420-452-198-4-333 114-401 250-58 110-57 222-55 374 4 329 162 540 480 540 202 0 327-90 384-240" id="r"/><g id="a"><use transform="matrix(0.00789141414141414,0,0,0.00789141414141414,0,0)" xlink:href="#m"/><use transform="matrix(0.00789141414141414,0,0,0.00789141414141414,11.616161616161614,0)" xlink:href="#n"/><use transform="matrix(0.00789141414141414,0,0,0.00789141414141414,25.157828282828277,0)" xlink:href="#o"/><use transform="matrix(0.00789141414141414,0,0,0.00789141414141414,30.42929292929292,0)" xlink:href="#p"/><use transform="matrix(0.00789141414141414,0,0,0.00789141414141414,35.700757575757564,0)" xlink:href="#q"/><use transform="matrix(0.00789141414141414,0,0,0.00789141414141414,43.78156565656565,0)" xlink:href="#r"/></g><path fill="#333" d="M332 0H72l752-2048h256L1832 0h-260L960-1724h-16zm96-800h1048v220H428v-220" id="s"/><path fill="#333" d="M452-2048V0H216v-2048h236" id="t"/><g id="b"><use transform="matrix(0.007891414141414142,0,0,0.007891414141414142,0,0)" xlink:href="#s"/><use transform="matrix(0.007891414141414142,0,0,0.007891414141414142,15.025252525252526,0)" xlink:href="#t"/><use transform="matrix(0.007891414141414142,0,0,0.007891414141414142,20.296717171717173,0)" xlink:href="#t"/></g><path fill="#333" d="M1124-208C1047-67 898 39 668 36c-306-9-520-163-524-472-5-429 452-428 824-480 100-15 168-19 168-120 0-203-114-312-324-312-206 0-337 110-400 232l-224-80c96-234 308-360 616-360 350 0 568 167 568 544V0h-236v-208h-12zM380-424c-2 171 150 249 324 248 185 3 312-84 382-197 66-107 46-242 50-399-190 112-562 41-708 206-32 35-48 82-48 142" id="u"/><path fill="#333" d="M820 224c-81 228-252 387-559 338-31-6-53-12-65-18l60-208c86 22 158 21 215-2s107-91 149-206L664 8 96-1536h256L776-312h16l424-1224 258 4" id="v"/><path fill="#333" d="M1472-356c-81 240-294 384-612 388-314 0-521-155-630-374-113-227-112-601 0-830 106-217 302-384 606-384 475 0 684 339 660 868H312v-204h944c-7-269-152-447-420-452-198-4-333 114-401 250-58 110-57 222-55 374 4 329 162 540 480 540 202 0 327-90 384-240" id="w"/><path fill="#333" d="M840-1332c-228 7-388 135-388 360V0H216v-1536h228v232h16c48-143 212-258 400-256 29 0 98 1 124 4v240c-30-6-100-18-144-16" id="x"/><path fill="#333" d="M728-176c184 3 360-85 360-240 0-133-100-185-228-216l-256-60c-141-33-244-86-310-156-120-119-130-353-24-494 95-127 270-214 490-214 302 0 467 146 544 364l-212 60c-51-127-146-220-332-220-162 0-326 82-328 228 0 59 21 105 64 139 86 72 291 106 428 141s240 84 307 152c125 117 132 357 25 500C1155-57 969 34 732 32c-311 1-533-140-584-400l224-56c41 161 158 245 356 248" id="y"/><g id="c"><use transform="matrix(0.007891414141414142,0,0,0.007891414141414142,0,0)" xlink:href="#t"/><use transform="matrix(0.007891414141414142,0,0,0.007891414141414142,5.271464646464647,0)" xlink:href="#u"/><use transform="matrix(0.007891414141414142,0,0,0.007891414141414142,17.803030303030305,0)" xlink:href="#v"/><use transform="matrix(0.007891414141414142,0,0,0.007891414141414142,30.1925505050505,0)" xlink:href="#w"/><use transform="matrix(0.007891414141414142,0,0,0.007891414141414142,43.134469696969695,0)" xlink:href="#x"/><use transform="matrix(0.007891414141414142,0,0,0.007891414141414142,51.404671717171716,0)" xlink:href="#y"/></g><path fill="#333" d="M844-1344c-250 5-392 162-392 420V0H216v-1536h228v240h20c73-154 217-263 448-260 349 8 519 217 520 580V0h-236v-960c3-231-128-388-352-384" id="z"/><path fill="#333" d="M1204-67C1004 62 676 62 476-67S143-436 144-760c-1-326 132-568 332-697s528-129 728 0 333 371 332 697c1 324-133 564-332 693zM580-261c128 104 389 100 520 0 184-140 253-512 151-786-62-165-189-298-411-297-325 7-460 262-460 584 0 217 75 397 200 499" id="A"/><path fill="#333" d="M564 0L96-1536h248L676-360h16l328-1176h252l324 1172h16l332-1172h248L1724 0h-232l-336-1180h-24L796 0H564" id="B"/><g id="d"><use transform="matrix(0.007891414141414142,0,0,0.007891414141414142,0,0)" xlink:href="#z"/><use transform="matrix(0.007891414141414142,0,0,0.007891414141414142,13.005050505050505,0)" xlink:href="#A"/><use transform="matrix(0.007891414141414142,0,0,0.007891414141414142,26.262626262626263,0)" xlink:href="#B"/></g><path fill="#333" d="M1244-236C1160-98 1040 38 796 32c-286-7-469-163-569-374-107-225-108-616 0-842 101-211 285-365 573-372 244-6 359 127 444 264h20v-756h236V0h-228v-236h-28zm-664-22c123 99 362 103 488 4 128-101 200-285 200-514 0-227-69-406-198-504-125-96-370-93-492 4-126 100-198 279-198 500 0 223 74 408 200 510" id="C"/><path fill="#333" d="M920 32C676 38 556-97 472-236h-20v812H216v-2112h228v244h28c84-136 200-270 444-264 288 7 472 161 573 372 108 226 107 617 0 842-100 211-282 367-569 374zM498-1070c-67 166-66 442 1 608 62 160 181 282 389 282 319 0 448-265 448-588 0-322-129-576-448-576-208 0-329 116-390 274" id="D"/><g id="e"><use transform="matrix(0.007891414141414142,0,0,0.007891414141414142,0,0)" xlink:href="#C"/><use transform="matrix(0.007891414141414142,0,0,0.007891414141414142,13.79419191919192,0)" xlink:href="#w"/><use transform="matrix(0.007891414141414142,0,0,0.007891414141414142,26.736111111111114,0)" xlink:href="#D"/><use transform="matrix(0.007891414141414142,0,0,0.007891414141414142,40.277777777777786,0)" xlink:href="#w"/><use transform="matrix(0.007891414141414142,0,0,0.007891414141414142,53.219696969696976,0)" xlink:href="#z"/><use transform="matrix(0.007891414141414142,0,0,0.007891414141414142,66.22474747474749,0)" xlink:href="#C"/></g><g id="f"><use transform="matrix(0.007891414141414142,0,0,0.007891414141414142,0,0)" xlink:href="#A"/><use transform="matrix(0.007891414141414142,0,0,0.007891414141414142,13.257575757575758,0)" xlink:href="#z"/></g><path fill="#333" d="M884-1536v200H88v-200h796zM912-8C806 31 647 29 540-23 419-82 320-195 320-376v-1528h236v1464c-3 157 61 231 204 232 42 1 74-6 104-12" id="E"/><path fill="#333" d="M856-1344c-254 4-404 159-404 420V0H216v-2048h236v752h20c75-159 213-263 452-260 352 7 524 215 524 580V0h-236v-960c3-234-128-388-356-384" id="F"/><g id="g"><use transform="matrix(0.007891414141414142,0,0,0.007891414141414142,0,0)" xlink:href="#E"/><use transform="matrix(0.007891414141414142,0,0,0.007891414141414142,8.080808080808081,0)" xlink:href="#F"/><use transform="matrix(0.007891414141414142,0,0,0.007891414141414142,21.21212121212121,0)" xlink:href="#w"/></g><path fill="#333" d="M1104-1052c4-173-131-299-304-292-212 9-348 163-348 384V0H216v-1536h228v240h20c59-155 204-260 412-260 216 0 340 107 412 260h16c75-152 235-262 460-260 300 6 468 196 468 528V0h-236v-1028c9-209-128-311-312-316-208-6-341 144-340 344V0h-240v-1052" id="G"/><path fill="#333" d="M216 0v-1536h236V0H216zm288-1952c0 86-81 160-168 160s-168-74-168-160 81-160 168-160 168 74 168 160" id="H"/><g id="h"><use transform="matrix(0.007891414141414142,0,0,0.007891414141414142,0,0)" xlink:href="#C"/><use transform="matrix(0.007891414141414142,0,0,0.007891414141414142,13.79419191919192,0)" xlink:href="#A"/><use transform="matrix(0.007891414141414142,0,0,0.007891414141414142,27.05176767676768,0)" xlink:href="#G"/><use transform="matrix(0.007891414141414142,0,0,0.007891414141414142,46.369949494949495,0)" xlink:href="#u"/><use transform="matrix(0.007891414141414142,0,0,0.007891414141414142,58.901515151515156,0)" xlink:href="#H"/><use transform="matrix(0.007891414141414142,0,0,0.007891414141414142,64.1729797979798,0)" xlink:href="#z"/></g><path fill="#333" d="M1444-448c-53 291-263 480-604 480-309 0-507-165-612-383-110-230-110-595 2-823 106-216 303-382 606-382 338 0 559 184 608 480h-236c-39-143-171-276-368-268-314 13-455 250-460 576-1 235 79 419 216 515 69 49 151 73 244 73 201-4 323-106 368-268h236" id="I"/><path fill="#333" d="M436-560l-4-292h48l672-684h292L728-812h-20zM216 0v-2048h236V0H216zm976 0L592-760l168-164L1492 0h-300" id="J"/><path fill="#333" d="M800-1556c245-6 363 127 448 264h24v-244h228V44c-3 395-276 558-664 564-313 5-510-121-628-308l188-132c90 123 207 236 440 232 245-5 428-117 428-372v-312h-20c-83 138-204 266-448 260-278-7-463-145-566-344-111-214-110-600-3-820 101-208 286-361 573-368zM380-780c0 315 135 544 448 544 312 0 440-225 440-544s-127-564-440-564c-315 0-448 249-448 564" id="K"/><path fill="#333" d="M568-164C562-59 494 11 388 16c-95 3-180-85-180-180s85-180 180-180 183 85 180 180" id="L"/><g id="i"><use transform="matrix(0.007891414141414142,0,0,0.007891414141414142,0,0)" xlink:href="#D"/><use transform="matrix(0.007891414141414142,0,0,0.007891414141414142,13.541666666666668,0)" xlink:href="#u"/><use transform="matrix(0.007891414141414142,0,0,0.007891414141414142,26.073232323232325,0)" xlink:href="#I"/><use transform="matrix(0.007891414141414142,0,0,0.007891414141414142,38.47853535353536,0)" xlink:href="#J"/><use transform="matrix(0.007891414141414142,0,0,0.007891414141414142,50.56818181818182,0)" xlink:href="#u"/><use transform="matrix(0.007891414141414142,0,0,0.007891414141414142,63.099747474747474,0)" xlink:href="#K"/><use transform="matrix(0.007891414141414142,0,0,0.007891414141414142,76.64141414141415,0)" xlink:href="#w"/><use transform="matrix(0.007891414141414142,0,0,0.007891414141414142,89.58333333333334,0)" xlink:href="#L"/></g><path fill="#fff" d="M564 0L96-1536h248L676-360h16l328-1176h252l324 1172h16l332-1172h248L1724 0h-232l-336-1180h-24L796 0H564" id="M"/><path fill="#fff" d="M900-1536v200H72v-200h828zm-124-388c-156-1-220 79-220 232V0H320v-1748c0-304 265-437 574-382 37 9 64 18 82 26l-68 204c-35-11-76-26-132-24" id="N"/><g id="j"><use transform="matrix(0.00789141414141414,0,0,0.00789141414141414,0,0)" xlink:href="#M"/><use transform="matrix(0.00789141414141414,0,0,0.00789141414141414,18.055555555555554,0)" xlink:href="#q"/><use transform="matrix(0.00789141414141414,0,0,0.00789141414141414,26.136363636363633,0)" xlink:href="#N"/></g><path fill="#fff" d="M856-1344c-254 4-404 159-404 420V0H216v-2048h236v752h20c75-159 213-263 452-260 352 7 524 215 524 580V0h-236v-960c3-234-128-388-356-384" id="O"/><path fill="#fff" d="M920 32C676 38 556-97 472-236h-20v812H216v-2112h228v244h28c84-136 200-270 444-264 288 7 472 161 573 372 108 226 107 617 0 842-100 211-282 367-569 374zM498-1070c-67 166-66 442 1 608 62 160 181 282 389 282 319 0 448-265 448-588 0-322-129-576-448-576-208 0-329 116-390 274" id="P"/><g id="k"><use transform="matrix(0.00789141414141414,0,0,0.00789141414141414,0,0)" xlink:href="#O"/><use transform="matrix(0.00789141414141414,0,0,0.00789141414141414,13.13131313131313,0)" xlink:href="#q"/><use transform="matrix(0.00789141414141414,0,0,0.00789141414141414,21.21212121212121,0)" xlink:href="#q"/><use transform="matrix(0.00789141414141414,0,0,0.00789141414141414,29.29292929292929,0)" xlink:href="#P"/></g><path fill="#fff" d="M1104-1052c4-173-131-299-304-292-212 9-348 163-348 384V0H216v-1536h228v240h20c59-155 204-260 412-260 216 0 340 107 412 260h16c75-152 235-262 460-260 300 6 468 196 468 528V0h-236v-1028c9-209-128-311-312-316-208-6-341 144-340 344V0h-240v-1052" id="Q"/><path fill="#fff" d="M1204-67C1004 62 676 62 476-67S143-436 144-760c-1-326 132-568 332-697s528-129 728 0 333 371 332 697c1 324-133 564-332 693zM580-261c128 104 389 100 520 0 184-140 253-512 151-786-62-165-189-298-411-297-325 7-460 262-460 584 0 217 75 397 200 499" id="R"/><path fill="#fff" d="M1444-448c-53 291-263 480-604 480-309 0-507-165-612-383-110-230-110-595 2-823 106-216 303-382 606-382 338 0 559 184 608 480h-236c-39-143-171-276-368-268-314 13-455 250-460 576-1 235 79 419 216 515 69 49 151 73 244 73 201-4 323-106 368-268h236" id="S"/><path fill="#fff" d="M436-560l-4-292h48l672-684h292L728-812h-20zM216 0v-2048h236V0H216zm976 0L592-760l168-164L1492 0h-300" id="T"/><g id="l"><use transform="matrix(0.00789141414141414,0,0,0.00789141414141414,0,0)" xlink:href="#Q"/><use transform="matrix(0.00789141414141414,0,0,0.00789141414141414,19.318181818181817,0)" xlink:href="#R"/><use transform="matrix(0.00789141414141414,0,0,0.00789141414141414,32.57575757575757,0)" xlink:href="#S"/><use transform="matrix(0.00789141414141414,0,0,0.00789141414141414,44.981060606060595,0)" xlink:href="#T"/></g></defs></g></svg>