<svg xmlns="http://www.w3.org/2000/svg" xmlns:xlink="http://www.w3.org/1999/xlink" xmlns:lucid="lucid" width="520" height="260"><g transform="translate(-520 -300)" lucid:page-tab-id="0os4y17kwrCY"><path d="M540 486c0-3.3 2.7-6 6-6h148c3.3 0 6 2.7 6 6v48c0 3.3-2.7 6-6 6H546c-3.3 0-6-2.7-6-6z" stroke="#007896" stroke-width="3" fill="#00acd7"/><use xlink:href="#a" transform="matrix(1,0,0,1,552,492) translate(58.7354797979798 26.027777777777775)"/><path d="M540 406c0-3.3 2.7-6 6-6h148c3.3 0 6 2.7 6 6v48c0 3.3-2.7 6-6 6H546c-3.3 0-6-2.7-6-6z" stroke="#007896" stroke-width="3" fill="#00acd7"/><use xlink:href="#b" transform="matrix(1,0,0,1,552,412) translate(50.986111111111114 26.027777777777775)"/><path d="M540 326c0-3.3 2.7-6 6-6h148c3.3 0 6 2.7 6 6v48c0 3.3-2.7 6-6 6H546c-3.3 0-6-2.7-6-6z" stroke="#007896" stroke-width="3" fill="#00acd7"/><use xlink:href="#c" transform="matrix(1,0,0,1,552,332) translate(25.60732323232324 26.027777777777775)"/><path d="M740 326c0-3.3 2.7-6 6-6h268c3.3 0 6 2.7 6 6v208c0 3.3-2.7 6-6 6H746c-3.3 0-6-2.7-6-6z" fill="none"/><path d="M740 540c5.52 0 10-4.48 10-10v-90c0-5.52 4.48-10 10-10-5.52 0-10-4.48-10-10v-90c0-5.52-4.48-10-10-10" stroke="#5e5e5e" stroke-width="3" fill="none"/><use xlink:href="#d" transform="matrix(1,0,0,1,775,325) translate(0 86.68686868686868)"/><use xlink:href="#e" transform="matrix(1,0,0,1,775,325) translate(57.60732323232324 86.68686868686868)"/><use xlink:href="#f" transform="matrix(1,0,0,1,775,325) translate(153.44065656565658 86.68686868686868)"/><use xlink:href="#g" transform="matrix(1,0,0,1,775,325) translate(0 113.58080808080808)"/><use xlink:href="#h" transform="matrix(1,0,0,1,775,325) translate(32.51262626262626 113.58080808080808)"/><use xlink:href="#i" transform="matrix(1,0,0,1,775,325) translate(72.91666666666666 113.58080808080808)"/><use xlink:href="#j" transform="matrix(1,0,0,1,775,325) translate(209.62752525252526 113.58080808080808)"/><use xlink:href="#h" transform="matrix(1,0,0,1,775,325) translate(0 140.47474747474746)"/><use xlink:href="#k" transform="matrix(1,0,0,1,775,325) translate(40.4040404040404 140.47474747474746)"/><use xlink:href="#l" transform="matrix(1,0,0,1,775,325) translate(109.67487373737374 140.47474747474746)"/><use xlink:href="#m" transform="matrix(1,0,0,1,775,325) translate(179.24558080808083 140.47474747474746)"/><defs><path fill="#fff" d="M216 0v-1536h236V0H216zm288-1952c0 86-81 160-168 160s-168-74-168-160 81-160 168-160 168 74 168 160" id="n"/><path fill="#fff" d="M1204-67C1004 62 676 62 476-67S143-436 144-760c-1-326 132-568 332-697s528-129 728 0 333 371 332 697c1 324-133 564-332 693zM580-261c128 104 389 100 520 0 184-140 253-512 151-786-62-165-189-298-411-297-325 7-460 262-460 584 0 217 75 397 200 499" id="o"/><g id="a"><use transform="matrix(0.00789141414141414,0,0,0.00789141414141414,0,0)" xlink:href="#n"/><use transform="matrix(0.00789141414141414,0,0,0.00789141414141414,5.271464646464645,0)" xlink:href="#o"/></g><path fill="#fff" d="M844-1344c-250 5-392 162-392 420V0H216v-1536h228v240h20c73-154 217-263 448-260 349 8 519 217 520 580V0h-236v-960c3-231-128-388-352-384" id="p"/><path fill="#fff" d="M1472-356c-81 240-294 384-612 388-314 0-521-155-630-374-113-227-112-601 0-830 106-217 302-384 606-384 475 0 684 339 660 868H312v-204h944c-7-269-152-447-420-452-198-4-333 114-401 250-58 110-57 222-55 374 4 329 162 540 480 540 202 0 327-90 384-240" id="q"/><path fill="#fff" d="M884-1536v200H88v-200h796zM912-8C806 31 647 29 540-23 419-82 320-195 320-376v-1528h236v1464c-3 157 61 231 204 232 42 1 74-6 104-12" id="r"/><g id="b"><use transform="matrix(0.00789141414141414,0,0,0.00789141414141414,0,0)" xlink:href="#p"/><use transform="matrix(0.00789141414141414,0,0,0.00789141414141414,13.005050505050503,0)" xlink:href="#q"/><use transform="matrix(0.00789141414141414,0,0,0.00789141414141414,25.946969696969695,0)" xlink:href="#r"/></g><path fill="#fff" d="M940-2144L280 308H64l660-2452h216" id="s"/><path fill="#fff" d="M856-1344c-254 4-404 159-404 420V0H216v-2048h236v752h20c75-159 213-263 452-260 352 7 524 215 524 580V0h-236v-960c3-234-128-388-356-384" id="t"/><path fill="#fff" d="M920 32C676 38 556-97 472-236h-20v812H216v-2112h228v244h28c84-136 200-270 444-264 288 7 472 161 573 372 108 226 107 617 0 842-100 211-282 367-569 374zM498-1070c-67 166-66 442 1 608 62 160 181 282 389 282 319 0 448-265 448-588 0-322-129-576-448-576-208 0-329 116-390 274" id="u"/><g id="c"><use transform="matrix(0.00789141414141414,0,0,0.00789141414141414,0,0)" xlink:href="#p"/><use transform="matrix(0.00789141414141414,0,0,0.00789141414141414,13.005050505050503,0)" xlink:href="#q"/><use transform="matrix(0.00789141414141414,0,0,0.00789141414141414,25.946969696969695,0)" xlink:href="#r"/><use transform="matrix(0.00789141414141414,0,0,0.00789141414141414,34.02777777777777,0)" xlink:href="#s"/><use transform="matrix(0.00789141414141414,0,0,0.00789141414141414,41.95075757575757,0)" xlink:href="#t"/><use transform="matrix(0.00789141414141414,0,0,0.00789141414141414,55.0820707070707,0)" xlink:href="#r"/><use transform="matrix(0.00789141414141414,0,0,0.00789141414141414,63.16287878787878,0)" xlink:href="#r"/><use transform="matrix(0.00789141414141414,0,0,0.00789141414141414,71.24368686868686,0)" xlink:href="#u"/></g><path fill="#333" d="M248 0v-2048h1236v220H496v692h924v220H496v696h1004V0H248" id="v"/><path fill="#333" d="M1124-208C1047-67 898 39 668 36c-306-9-520-163-524-472-5-429 452-428 824-480 100-15 168-19 168-120 0-203-114-312-324-312-206 0-337 110-400 232l-224-80c96-234 308-360 616-360 350 0 568 167 568 544V0h-236v-208h-12zM380-424c-2 171 150 249 324 248 185 3 312-84 382-197 66-107 46-242 50-399-190 112-562 41-708 206-32 35-48 82-48 142" id="w"/><path fill="#333" d="M1444-448c-53 291-263 480-604 480-309 0-507-165-612-383-110-230-110-595 2-823 106-216 303-382 606-382 338 0 559 184 608 480h-236c-39-143-171-276-368-268-314 13-455 250-460 576-1 235 79 419 216 515 69 49 151 73 244 73 201-4 323-106 368-268h236" id="x"/><path fill="#333" d="M856-1344c-254 4-404 159-404 420V0H216v-2048h236v752h20c75-159 213-263 452-260 352 7 524 215 524 580V0h-236v-960c3-234-128-388-356-384" id="y"/><g id="d"><use transform="matrix(0.007891414141414142,0,0,0.007891414141414142,0,0)" xlink:href="#v"/><use transform="matrix(0.007891414141414142,0,0,0.007891414141414142,13.289141414141415,0)" xlink:href="#w"/><use transform="matrix(0.007891414141414142,0,0,0.007891414141414142,25.820707070707073,0)" xlink:href="#x"/><use transform="matrix(0.007891414141414142,0,0,0.007891414141414142,38.226010101010104,0)" xlink:href="#y"/></g><path fill="#333" d="M920 32C676 38 556-97 472-236h-20v812H216v-2112h228v244h28c84-136 200-270 444-264 288 7 472 161 573 372 108 226 107 617 0 842-100 211-282 367-569 374zM498-1070c-67 166-66 442 1 608 62 160 181 282 389 282 319 0 448-265 448-588 0-322-129-576-448-576-208 0-329 116-390 274" id="z"/><path fill="#333" d="M436-560l-4-292h48l672-684h292L728-812h-20zM216 0v-2048h236V0H216zm976 0L592-760l168-164L1492 0h-300" id="A"/><path fill="#333" d="M800-1556c245-6 363 127 448 264h24v-244h228V44c-3 395-276 558-664 564-313 5-510-121-628-308l188-132c90 123 207 236 440 232 245-5 428-117 428-372v-312h-20c-83 138-204 266-448 260-278-7-463-145-566-344-111-214-110-600-3-820 101-208 286-361 573-368zM380-780c0 315 135 544 448 544 312 0 440-225 440-544s-127-564-440-564c-315 0-448 249-448 564" id="B"/><path fill="#333" d="M1472-356c-81 240-294 384-612 388-314 0-521-155-630-374-113-227-112-601 0-830 106-217 302-384 606-384 475 0 684 339 660 868H312v-204h944c-7-269-152-447-420-452-198-4-333 114-401 250-58 110-57 222-55 374 4 329 162 540 480 540 202 0 327-90 384-240" id="C"/><g id="e"><use transform="matrix(0.007891414141414142,0,0,0.007891414141414142,0,0)" xlink:href="#z"/><use transform="matrix(0.007891414141414142,0,0,0.007891414141414142,13.541666666666668,0)" xlink:href="#w"/><use transform="matrix(0.007891414141414142,0,0,0.007891414141414142,26.073232323232325,0)" xlink:href="#x"/><use transform="matrix(0.007891414141414142,0,0,0.007891414141414142,38.47853535353536,0)" xlink:href="#A"/><use transform="matrix(0.007891414141414142,0,0,0.007891414141414142,50.56818181818182,0)" xlink:href="#w"/><use transform="matrix(0.007891414141414142,0,0,0.007891414141414142,63.099747474747474,0)" xlink:href="#B"/><use transform="matrix(0.007891414141414142,0,0,0.007891414141414142,76.64141414141415,0)" xlink:href="#C"/></g><path fill="#333" d="M952 32C708 38 588-97 504-236h-28V0H248v-2048h236v756h20c84-136 200-270 444-264 288 7 472 161 573 372 108 226 107 617 0 842-100 211-282 367-569 374zM530-1070c-67 166-66 442 1 608 62 160 181 282 389 282 319 0 448-265 448-588 0-322-129-576-448-576-208 0-329 116-390 274" id="D"/><path fill="#333" d="M452-576c-6 211 135 376 336 368 233-10 396-164 396-420v-908h236V0h-236v-260h-16C1095-108 943 25 712 20 377 9 216-206 216-560v-976h236v960" id="E"/><path fill="#333" d="M216 0v-1536h236V0H216zm288-1952c0 86-81 160-168 160s-168-74-168-160 81-160 168-160 168 74 168 160" id="F"/><path fill="#333" d="M452-2048V0H216v-2048h236" id="G"/><path fill="#333" d="M1244-236C1160-98 1040 38 796 32c-286-7-469-163-569-374-107-225-108-616 0-842 101-211 285-365 573-372 244-6 359 127 444 264h20v-756h236V0h-228v-236h-28zm-664-22c123 99 362 103 488 4 128-101 200-285 200-514 0-227-69-406-198-504-125-96-370-93-492 4-126 100-198 279-198 500 0 223 74 408 200 510" id="H"/><path fill="#333" d="M728-176c184 3 360-85 360-240 0-133-100-185-228-216l-256-60c-141-33-244-86-310-156-120-119-130-353-24-494 95-127 270-214 490-214 302 0 467 146 544 364l-212 60c-51-127-146-220-332-220-162 0-326 82-328 228 0 59 21 105 64 139 86 72 291 106 428 141s240 84 307 152c125 117 132 357 25 500C1155-57 969 34 732 32c-311 1-533-140-584-400l224-56c41 161 158 245 356 248" id="I"/><g id="f"><use transform="matrix(0.007891414141414142,0,0,0.007891414141414142,0,0)" xlink:href="#D"/><use transform="matrix(0.007891414141414142,0,0,0.007891414141414142,13.79419191919192,0)" xlink:href="#E"/><use transform="matrix(0.007891414141414142,0,0,0.007891414141414142,26.704545454545457,0)" xlink:href="#F"/><use transform="matrix(0.007891414141414142,0,0,0.007891414141414142,31.976010101010104,0)" xlink:href="#G"/><use transform="matrix(0.007891414141414142,0,0,0.007891414141414142,37.247474747474755,0)" xlink:href="#H"/><use transform="matrix(0.007891414141414142,0,0,0.007891414141414142,51.04166666666667,0)" xlink:href="#I"/></g><path fill="#333" d="M1204-67C1004 62 676 62 476-67S143-436 144-760c-1-326 132-568 332-697s528-129 728 0 333 371 332 697c1 324-133 564-332 693zM580-261c128 104 389 100 520 0 184-140 253-512 151-786-62-165-189-298-411-297-325 7-460 262-460 584 0 217 75 397 200 499" id="J"/><path fill="#333" d="M844-1344c-250 5-392 162-392 420V0H216v-1536h228v240h20c73-154 217-263 448-260 349 8 519 217 520 580V0h-236v-960c3-231-128-388-352-384" id="K"/><g id="g"><use transform="matrix(0.007891414141414142,0,0,0.007891414141414142,0,0)" xlink:href="#J"/><use transform="matrix(0.007891414141414142,0,0,0.007891414141414142,13.257575757575758,0)" xlink:href="#K"/></g><path fill="#333" d="M884-1536v200H88v-200h796zM912-8C806 31 647 29 540-23 419-82 320-195 320-376v-1528h236v1464c-3 157 61 231 204 232 42 1 74-6 104-12" id="L"/><g id="h"><use transform="matrix(0.007891414141414142,0,0,0.007891414141414142,0,0)" xlink:href="#L"/><use transform="matrix(0.007891414141414142,0,0,0.007891414141414142,8.080808080808081,0)" xlink:href="#y"/><use transform="matrix(0.007891414141414142,0,0,0.007891414141414142,21.21212121212121,0)" xlink:href="#C"/></g><path fill="#333" d="M840-1332c-228 7-388 135-388 360V0H216v-1536h228v232h16c48-143 212-258 400-256 29 0 98 1 124 4v240c-30-6-100-18-144-16" id="M"/><g id="i"><use transform="matrix(0.007891414141414142,0,0,0.007891414141414142,0,0)" xlink:href="#w"/><use transform="matrix(0.007891414141414142,0,0,0.007891414141414142,12.531565656565657,0)" xlink:href="#D"/><use transform="matrix(0.007891414141414142,0,0,0.007891414141414142,26.325757575757578,0)" xlink:href="#I"/><use transform="matrix(0.007891414141414142,0,0,0.007891414141414142,37.9419191919192,0)" xlink:href="#L"/><use transform="matrix(0.007891414141414142,0,0,0.007891414141414142,46.02272727272728,0)" xlink:href="#M"/><use transform="matrix(0.007891414141414142,0,0,0.007891414141414142,54.2929292929293,0)" xlink:href="#w"/><use transform="matrix(0.007891414141414142,0,0,0.007891414141414142,66.82449494949496,0)" xlink:href="#x"/><use transform="matrix(0.007891414141414142,0,0,0.007891414141414142,79.229797979798,0)" xlink:href="#L"/><use transform="matrix(0.007891414141414142,0,0,0.007891414141414142,87.31060606060608,0)" xlink:href="#F"/><use transform="matrix(0.007891414141414142,0,0,0.007891414141414142,92.58207070707073,0)" xlink:href="#J"/><use transform="matrix(0.007891414141414142,0,0,0.007891414141414142,105.83964646464648,0)" xlink:href="#K"/><use transform="matrix(0.007891414141414142,0,0,0.007891414141414142,118.84469696969698,0)" xlink:href="#I"/></g><path fill="#333" d="M900-1536v200H72v-200h828zm-124-388c-156-1-220 79-220 232V0H320v-1748c0-304 265-437 574-382 37 9 64 18 82 26l-68 204c-35-11-76-26-132-24" id="N"/><g id="j"><use transform="matrix(0.007891414141414142,0,0,0.007891414141414142,0,0)" xlink:href="#J"/><use transform="matrix(0.007891414141414142,0,0,0.007891414141414142,13.257575757575758,0)" xlink:href="#N"/></g><path fill="#333" d="M820 224c-81 228-252 387-559 338-31-6-53-12-65-18l60-208c86 22 158 21 215-2s107-91 149-206L664 8 96-1536h256L776-312h16l424-1224 258 4" id="O"/><g id="k"><use transform="matrix(0.007891414141414142,0,0,0.007891414141414142,0,0)" xlink:href="#G"/><use transform="matrix(0.007891414141414142,0,0,0.007891414141414142,5.271464646464647,0)" xlink:href="#w"/><use transform="matrix(0.007891414141414142,0,0,0.007891414141414142,17.803030303030305,0)" xlink:href="#O"/><use transform="matrix(0.007891414141414142,0,0,0.007891414141414142,30.1925505050505,0)" xlink:href="#C"/><use transform="matrix(0.007891414141414142,0,0,0.007891414141414142,43.134469696969695,0)" xlink:href="#M"/><use transform="matrix(0.007891414141414142,0,0,0.007891414141414142,51.404671717171716,0)" xlink:href="#I"/></g><path fill="#333" d="M564 0L96-1536h248L676-360h16l328-1176h252l324 1172h16l332-1172h248L1724 0h-232l-336-1180h-24L796 0H564" id="P"/><g id="l"><use transform="matrix(0.007891414141414142,0,0,0.007891414141414142,0,0)" xlink:href="#D"/><use transform="matrix(0.007891414141414142,0,0,0.007891414141414142,13.79419191919192,0)" xlink:href="#C"/><use transform="matrix(0.007891414141414142,0,0,0.007891414141414142,26.736111111111114,0)" xlink:href="#G"/><use transform="matrix(0.007891414141414142,0,0,0.007891414141414142,32.007575757575765,0)" xlink:href="#J"/><use transform="matrix(0.007891414141414142,0,0,0.007891414141414142,45.26515151515152,0)" xlink:href="#P"/></g><path fill="#333" d="M568-164C562-59 494 11 388 16c-95 3-180-85-180-180s85-180 180-180 183 85 180 180" id="Q"/><g id="m"><use transform="matrix(0.007891414141414142,0,0,0.007891414141414142,0,0)" xlink:href="#F"/><use transform="matrix(0.007891414141414142,0,0,0.007891414141414142,5.271464646464647,0)" xlink:href="#L"/><use transform="matrix(0.007891414141414142,0,0,0.007891414141414142,13.352272727272728,0)" xlink:href="#Q"/></g></defs></g></svg>