<svg xmlns="http://www.w3.org/2000/svg" xmlns:xlink="http://www.w3.org/1999/xlink" xmlns:lucid="lucid" width="1020" height="340"><g transform="translate(-240 -180)" lucid:page-tab-id="LEt4PhRwdJtc"><path d="M260 266c0-3.3 2.7-6 6-6h208c3.3 0 6 2.7 6 6v234c-36.74-40.08-59.62-40.08-73.48-40.08-22 0-51.26 40.08-73.26 40.08-13.64 0-36.74 0-73.26-40.08z" stroke="#5e5e5e" stroke-width="3" fill="#fff"/><path d="M280 386c0-3.3 2.7-6 6-6h168c3.3 0 6 2.7 6 6v48c0 3.3-2.7 6-6 6H286c-3.3 0-6-2.7-6-6z" stroke="#007896" stroke-width="3" fill="#00acd7"/><use xlink:href="#a" transform="matrix(1,0,0,1,292,392) translate(49.63825757575758 26.027777777777775)"/><path d="M280 286c0-3.3 2.7-6 6-6h168c3.3 0 6 2.7 6 6v48c0 3.3-2.7 6-6 6H286c-3.3 0-6-2.7-6-6z" stroke="#007896" stroke-width="3" fill="#00acd7"/><use xlink:href="#b" transform="matrix(1,0,0,1,292,292) translate(56.58270202020202 26.027777777777775)"/><path d="M370 342.5V360" stroke="#5e5e5e" stroke-width="2" fill="none"/><path d="M371 342.53h-2v-1.03h2z" fill="#5e5e5e"/><path d="M370 375.26L365.36 361h9.28z" stroke="#5e5e5e" stroke-width="2" fill="#5e5e5e"/><path d="M260 206c0-3.3 2.7-6 6-6h188c3.3 0 6 2.7 6 6v48c0 3.3-2.7 6-6 6H266c-3.3 0-6-2.7-6-6z" stroke="#000" stroke-opacity="0" stroke-width="3" fill="#fff" fill-opacity="0"/><use xlink:href="#c" transform="matrix(1,0,0,1,265,205) translate(0 33.08080808080808)"/><path d="M560 266c0-3.3 2.7-6 6-6h208c3.3 0 6 2.7 6 6v234c-36.74-40.08-59.62-40.08-73.48-40.08-22 0-51.26 40.08-73.26 40.08-13.64 0-36.74 0-73.26-40.08z" stroke="#5e5e5e" stroke-width="3" fill="#fff"/><path d="M580 386c0-3.3 2.7-6 6-6h168c3.3 0 6 2.7 6 6v48c0 3.3-2.7 6-6 6H586c-3.3 0-6-2.7-6-6z" fill="#00acd7" fill-opacity=".5"/><path d="M596.7 380h9.15m6.1 0h9.18m6.1 0h9.17m6.1 0h9.17m6.1 0h9.18m6.1 0h9.17m6.1 0h9.17m6.1 0h9.16m6.1 0h9.18m6.1 0h9.17m6.12 0H754l3.03.82 2.15 2.15.82 3.03v4.8m0 6.4v9.6m0 6.4v9.6m0 6.4v4.8l-.82 3.03-2.15 2.15-3.03.82h-4.58m-6.1 0h-9.17m-6.1 0h-9.18m-6.1 0h-9.17m-6.1 0h-9.17m-6.1 0h-9.18m-6.1 0h-9.17m-6.1 0h-9.17m-6.1 0h-9.16m-6.1 0h-9.18m-6.1 0h-9.17m-6.12 0H586l-3.03-.82-2.15-2.15L580 434v-4.8m0-6.4v-9.6m0-6.4v-9.6m0-6.4V386l.82-3.03 2.15-2.15L586 380h4.58" stroke="#007896" stroke-width="3" fill="none"/><use xlink:href="#d" transform="matrix(1,0,0,1,592,392) translate(49.46464646464647 26.027777777777775)"/><path d="M580 286c0-3.3 2.7-6 6-6h168c3.3 0 6 2.7 6 6v48c0 3.3-2.7 6-6 6H586c-3.3 0-6-2.7-6-6z" stroke="#007896" stroke-width="3" fill="#00acd7"/><use xlink:href="#b" transform="matrix(1,0,0,1,592,292) translate(56.58270202020202 26.027777777777775)"/><path d="M670 342.5V360" stroke="#5e5e5e" stroke-width="2" fill="none"/><path d="M671 342.53h-2v-1.03h2z" fill="#5e5e5e"/><path d="M670 375.26L665.36 361h9.28z" stroke="#5e5e5e" stroke-width="2" fill="#5e5e5e"/><path d="M560 206c0-3.3 2.7-6 6-6h188c3.3 0 6 2.7 6 6v48c0 3.3-2.7 6-6 6H566c-3.3 0-6-2.7-6-6z" stroke="#000" stroke-opacity="0" stroke-width="3" fill="#fff" fill-opacity="0"/><use xlink:href="#e" transform="matrix(1,0,0,1,565,205) translate(0 34.02777777777778)"/><path d="M840 266c0-3.3 2.7-6 6-6h388c3.3 0 6 2.7 6 6v228c0 3.3-2.7 6-6 6H846c-3.3 0-6-2.7-6-6z" fill="none"/><path d="M840 500c5.52 0 10-4.48 10-10V390c0-5.52 4.48-10 10-10-5.52 0-10-4.48-10-10V270c0-5.52-4.48-10-10-10" stroke="#5e5e5e" stroke-width="3" fill="none"/><use xlink:href="#f" transform="matrix(1,0,0,1,875,265) translate(0 109.63383838383837)"/><use xlink:href="#g" transform="matrix(1,0,0,1,875,265) translate(76.49936868686869 109.63383838383837)"/><use xlink:href="#h" transform="matrix(1,0,0,1,875,265) translate(116.49305555555557 109.63383838383837)"/><use xlink:href="#i" transform="matrix(1,0,0,1,875,265) translate(167.06123737373738 109.63383838383837)"/><use xlink:href="#j" transform="matrix(1,0,0,1,875,265) translate(0 136.52777777777777)"/><use xlink:href="#k" transform="matrix(1,0,0,1,875,265) translate(118.08712121212123 136.52777777777777)"/><use xlink:href="#l" transform="matrix(1,0,0,1,875,265) translate(150.5997474747475 136.52777777777777)"/><defs><path fill="#fff" d="M728-176c184 3 360-85 360-240 0-133-100-185-228-216l-256-60c-141-33-244-86-310-156-120-119-130-353-24-494 95-127 270-214 490-214 302 0 467 146 544 364l-212 60c-51-127-146-220-332-220-162 0-326 82-328 228 0 59 21 105 64 139 86 72 291 106 428 141s240 84 307 152c125 117 132 357 25 500C1155-57 969 34 732 32c-311 1-533-140-584-400l224-56c41 161 158 245 356 248" id="m"/><path fill="#fff" d="M800-1556c244-6 359 127 444 264h28v-244h228V576h-236v-812h-20C1160-98 1040 38 796 32c-286-7-469-163-569-374-107-225-108-616 0-842 101-211 285-365 573-372zm417 1094c67-166 68-442 1-608-61-158-182-274-390-274-319 0-448 255-448 576 0 223 74 408 200 510 123 99 364 105 488 4 65-50 115-120 149-208" id="n"/><path fill="#fff" d="M452-2048V0H216v-2048h236" id="o"/><path fill="#fff" d="M216 0v-1536h236V0H216zm288-1952c0 86-81 160-168 160s-168-74-168-160 81-160 168-160 168 74 168 160" id="p"/><path fill="#fff" d="M884-1536v200H88v-200h796zM912-8C806 31 647 29 540-23 419-82 320-195 320-376v-1528h236v1464c-3 157 61 231 204 232 42 1 74-6 104-12" id="q"/><path fill="#fff" d="M1472-356c-81 240-294 384-612 388-314 0-521-155-630-374-113-227-112-601 0-830 106-217 302-384 606-384 475 0 684 339 660 868H312v-204h944c-7-269-152-447-420-452-198-4-333 114-401 250-58 110-57 222-55 374 4 329 162 540 480 540 202 0 327-90 384-240" id="r"/><g id="a"><use transform="matrix(0.00789141414141414,0,0,0.00789141414141414,0,0)" xlink:href="#m"/><use transform="matrix(0.00789141414141414,0,0,0.00789141414141414,11.616161616161614,0)" xlink:href="#n"/><use transform="matrix(0.00789141414141414,0,0,0.00789141414141414,25.157828282828277,0)" xlink:href="#o"/><use transform="matrix(0.00789141414141414,0,0,0.00789141414141414,30.42929292929292,0)" xlink:href="#p"/><use transform="matrix(0.00789141414141414,0,0,0.00789141414141414,35.700757575757564,0)" xlink:href="#q"/><use transform="matrix(0.00789141414141414,0,0,0.00789141414141414,43.78156565656565,0)" xlink:href="#r"/></g><path fill="#fff" d="M856-1344c-254 4-404 159-404 420V0H216v-2048h236v752h20c75-159 213-263 452-260 352 7 524 215 524 580V0h-236v-960c3-234-128-388-356-384" id="s"/><path fill="#fff" d="M920 32C676 38 556-97 472-236h-20v812H216v-2112h228v244h28c84-136 200-270 444-264 288 7 472 161 573 372 108 226 107 617 0 842-100 211-282 367-569 374zM498-1070c-67 166-66 442 1 608 62 160 181 282 389 282 319 0 448-265 448-588 0-322-129-576-448-576-208 0-329 116-390 274" id="t"/><g id="b"><use transform="matrix(0.00789141414141414,0,0,0.00789141414141414,0,0)" xlink:href="#s"/><use transform="matrix(0.00789141414141414,0,0,0.00789141414141414,13.13131313131313,0)" xlink:href="#q"/><use transform="matrix(0.00789141414141414,0,0,0.00789141414141414,21.21212121212121,0)" xlink:href="#q"/><use transform="matrix(0.00789141414141414,0,0,0.00789141414141414,29.29292929292929,0)" xlink:href="#t"/></g><path fill="#333" d="M869-307c166-4 255-106 279-256h402c-32 376-281 588-686 593-329 1-550-156-666-380-118-229-117-599 2-826 116-222 335-380 662-380 276-1 479 109 591 278 59 88 91 191 97 310h-402c-20-144-117-261-279-256-238 8-325 203-328 456-1 186 52 331 155 407 49 36 107 54 173 54" id="u"/><path fill="#333" d="M846-1205c-159 5-250 118-250 283V0H170v-1536h406v271h18c58-168 209-291 428-291 214-2 373 120 417 291h16c58-170 236-293 463-291 297 0 484 209 484 523V0h-425v-949c5-159-93-254-238-256-155-3-246 112-246 267V0h-413v-958c3-145-93-251-234-247" id="v"/><path fill="#333" d="M1172-246C1097-96 968 27 736 25c-270-6-442-153-540-357-106-221-106-657 2-874 100-201 271-343 537-350 236-3 362 126 437 278h13v-770h425V0h-420v-246h-18zm-301-971c-237 0-318 203-323 449 0 175 51 318 146 396 90 74 262 76 352 2 96-78 149-221 148-398-4-248-86-449-323-449" id="w"/><path fill="#333" d="M1062-2144L402 308H35l660-2452h367" id="x"/><path fill="#333" d="M473 0L55-1536h431L724-504h14l248-1032h423l252 1026h13l234-1026h430L1921 0h-451l-264-966h-19L923 0H473" id="y"/><path fill="#333" d="M987-1536v320H62v-320h925zM842-322c33 1 81-10 106-14l67 317c-131 47-368 57-501-1-147-64-242-189-242-396v-1488h426v1432c-2 104 46 150 144 150" id="z"/><path fill="#333" d="M996-1536v320H48v-320h948zm-138-268c-120-1-168 54-168 165V0H265v-1647c-7-386 290-549 683-482 54 10 95 19 122 27l-76 320c-34-11-89-23-136-22" id="A"/><path fill="#333" d="M1057-213C978-65 835 29 608 29 303 29 98-121 98-429c0-345 264-439 577-473 140-18 250-18 335-64 26-18 37-43 37-80 0-132-91-199-228-199-145 0-241 72-273 177l-394-32c69-295 305-456 669-456 282 0 499 96 599 284 35 66 53 145 53 236V0h-404v-213h-12zM505-443c-2 120 103 179 225 178 185-5 311-104 320-284v-163c-172 97-533 15-545 269" id="B"/><path fill="#333" d="M170 0v-1536h426V0H170zm445-1950c0 117-110 216-230 216s-231-99-231-216c0-116 112-215 230-215 120 0 231 98 231 215" id="C"/><path fill="#333" d="M887-1202c-189 5-291 122-291 314V0H170v-1536h406v271h18c64-171 229-295 462-291 345 6 530 227 530 578V0h-426v-902c4-180-98-301-273-300" id="D"/><path fill="#333" d="M659-214C652-74 559 19 419 26 291 30 179-86 179-214c0-127 113-238 240-238 124 0 245 113 240 238" id="E"/><path fill="#333" d="M735-1556c237-3 363 127 439 278h16v-258h423V15c-10 416-328 575-751 583-264 2-466-76-589-207-58-63-96-134-113-211l394-53c49 105 157 166 318 165 187-2 320-85 320-283v-281h-18C1103-123 962-16 736-22 316-33 113-322 113-771c-4-332 116-575 311-698 94-58 198-87 311-87zM548-773c0 244 87 431 323 431 235 0 323-187 323-431 0-246-87-444-323-444s-323 200-323 444" id="F"/><path fill="#333" d="M1266-70C1051 59 677 59 462-70 250-197 108-434 108-762c0-330 142-566 354-694 215-129 589-129 804 0 213 128 354 364 354 694 0 328-142 565-354 692zM686-360c91 78 267 79 357 0 93-82 144-229 144-405s-51-323-144-405c-90-80-266-79-357 0-95 82-145 228-145 405s50 323 145 405" id="G"/><g id="c"><use transform="matrix(0.007891414141414142,0,0,0.007891414141414142,0,0)" xlink:href="#u"/><use transform="matrix(0.007891414141414142,0,0,0.007891414141414142,13.052398989898991,0)" xlink:href="#v"/><use transform="matrix(0.007891414141414142,0,0,0.007891414141414142,33.317550505050505,0)" xlink:href="#w"/><use transform="matrix(0.007891414141414142,0,0,0.007891414141414142,47.4352904040404,0)" xlink:href="#x"/><use transform="matrix(0.007891414141414142,0,0,0.007891414141414142,56.10006313131313,0)" xlink:href="#y"/><use transform="matrix(0.007891414141414142,0,0,0.007891414141414142,74.99210858585859,0)" xlink:href="#z"/><use transform="matrix(0.007891414141414142,0,0,0.007891414141414142,83.62531565656566,0)" xlink:href="#A"/><use transform="matrix(0.007891414141414142,0,0,0.007891414141414142,92.19539141414143,0)" xlink:href="#w"/><use transform="matrix(0.007891414141414142,0,0,0.007891414141414142,106.31313131313132,0)" xlink:href="#x"/><use transform="matrix(0.007891414141414142,0,0,0.007891414141414142,114.97790404040406,0)" xlink:href="#v"/><use transform="matrix(0.007891414141414142,0,0,0.007891414141414142,135.24305555555557,0)" xlink:href="#B"/><use transform="matrix(0.007891414141414142,0,0,0.007891414141414142,148.13762626262627,0)" xlink:href="#C"/><use transform="matrix(0.007891414141414142,0,0,0.007891414141414142,154.1824494949495,0)" xlink:href="#D"/><use transform="matrix(0.007891414141414142,0,0,0.007891414141414142,168.00031565656568,0)" xlink:href="#E"/><use transform="matrix(0.007891414141414142,0,0,0.007891414141414142,174.61332070707073,0)" xlink:href="#F"/><use transform="matrix(0.007891414141414142,0,0,0.007891414141414142,188.68371212121215,0)" xlink:href="#G"/></g><path fill="#333" d="M1104-1052c4-173-131-299-304-292-212 9-348 163-348 384V0H216v-1536h228v240h20c59-155 204-260 412-260 216 0 340 107 412 260h16c75-152 235-262 460-260 300 6 468 196 468 528V0h-236v-1028c9-209-128-311-312-316-208-6-341 144-340 344V0h-240v-1052" id="H"/><path fill="#333" d="M1204-67C1004 62 676 62 476-67S143-436 144-760c-1-326 132-568 332-697s528-129 728 0 333 371 332 697c1 324-133 564-332 693zM580-261c128 104 389 100 520 0 184-140 253-512 151-786-62-165-189-298-411-297-325 7-460 262-460 584 0 217 75 397 200 499" id="I"/><path fill="#333" d="M1444-448c-53 291-263 480-604 480-309 0-507-165-612-383-110-230-110-595 2-823 106-216 303-382 606-382 338 0 559 184 608 480h-236c-39-143-171-276-368-268-314 13-455 250-460 576-1 235 79 419 216 515 69 49 151 73 244 73 201-4 323-106 368-268h236" id="J"/><path fill="#333" d="M436-560l-4-292h48l672-684h292L728-812h-20zM216 0v-2048h236V0H216zm976 0L592-760l168-164L1492 0h-300" id="K"/><g id="d"><use transform="matrix(0.00789141414141414,0,0,0.00789141414141414,0,0)" xlink:href="#H"/><use transform="matrix(0.00789141414141414,0,0,0.00789141414141414,19.318181818181817,0)" xlink:href="#I"/><use transform="matrix(0.00789141414141414,0,0,0.00789141414141414,32.57575757575757,0)" xlink:href="#J"/><use transform="matrix(0.00789141414141414,0,0,0.00789141414141414,44.981060606060595,0)" xlink:href="#K"/></g><path fill="#333" d="M892-1202c-190 5-296 121-296 314V0H170v-2048h414v783h18c67-175 220-295 459-291 345 6 531 226 531 578V0h-426v-902c4-182-97-301-274-300" id="L"/><path fill="#333" d="M1045 25C813 27 683-95 609-246h-13v822H170v-2112h420v258h19c75-152 201-281 437-278 264 7 438 150 537 350 107 217 109 653 3 874-98 204-271 351-541 357zM910-1217c-238 0-318 201-323 449-1 177 52 320 148 398 91 74 261 72 351-2 95-78 147-221 147-396-5-246-86-449-323-449" id="M"/><path fill="#333" d="M1343 0v323H-2V0h1345" id="N"/><path fill="#333" d="M1566-440c-72 303-322 466-696 470-330 0-552-147-670-370-119-225-120-610 0-837 116-220 332-379 653-379 350 0 567 173 667 438 50 125 59 283 55 459H278v-264h896c-6-192-121-315-314-315-200 0-331 133-331 329v251c4 228 123 370 348 370 153 0 252-66 295-178" id="O"/><path fill="#333" d="M800-277c126 3 250-49 250-156 0-102-90-132-197-153l-266-53c-150-30-260-84-335-156-133-126-143-389-28-538 110-143 314-223 570-223 361 0 612 158 654 458l-390 24c-27-112-117-179-257-180-113-2-234 49-235 152 0 37 15 68 44 93 90 69 294 86 429 117 149 34 259 82 334 148 141 124 140 385 21 533C1276-63 1065 30 799 30c-377 0-651-164-697-475l419-22c24 124 129 191 279 190" id="P"/><g id="e"><use transform="matrix(0.007891414141414142,0,0,0.007891414141414142,0,0)" xlink:href="#L"/><use transform="matrix(0.007891414141414142,0,0,0.007891414141414142,13.873106060606062,0)" xlink:href="#z"/><use transform="matrix(0.007891414141414142,0,0,0.007891414141414142,22.506313131313135,0)" xlink:href="#z"/><use transform="matrix(0.007891414141414142,0,0,0.007891414141414142,31.139520202020208,0)" xlink:href="#M"/><use transform="matrix(0.007891414141414142,0,0,0.007891414141414142,45.194128787878796,0)" xlink:href="#x"/><use transform="matrix(0.007891414141414142,0,0,0.007891414141414142,53.85890151515152,0)" xlink:href="#L"/><use transform="matrix(0.007891414141414142,0,0,0.007891414141414142,67.73200757575759,0)" xlink:href="#z"/><use transform="matrix(0.007891414141414142,0,0,0.007891414141414142,76.36521464646466,0)" xlink:href="#z"/><use transform="matrix(0.007891414141414142,0,0,0.007891414141414142,84.99842171717174,0)" xlink:href="#M"/><use transform="matrix(0.007891414141414142,0,0,0.007891414141414142,99.05303030303033,0)" xlink:href="#N"/><use transform="matrix(0.007891414141414142,0,0,0.007891414141414142,109.64330808080811,0)" xlink:href="#z"/><use transform="matrix(0.007891414141414142,0,0,0.007891414141414142,118.27651515151518,0)" xlink:href="#O"/><use transform="matrix(0.007891414141414142,0,0,0.007891414141414142,131.55776515151518,0)" xlink:href="#P"/><use transform="matrix(0.007891414141414142,0,0,0.007891414141414142,144.04198232323236,0)" xlink:href="#z"/><use transform="matrix(0.007891414141414142,0,0,0.007891414141414142,152.67518939393943,0)" xlink:href="#E"/><use transform="matrix(0.007891414141414142,0,0,0.007891414141414142,159.28819444444449,0)" xlink:href="#F"/><use transform="matrix(0.007891414141414142,0,0,0.007891414141414142,173.3585858585859,0)" xlink:href="#G"/></g><path fill="#333" d="M248 0v-2048h248v1828h952V0H248" id="Q"/><path fill="#333" d="M1124-208C1047-67 898 39 668 36c-306-9-520-163-524-472-5-429 452-428 824-480 100-15 168-19 168-120 0-203-114-312-324-312-206 0-337 110-400 232l-224-80c96-234 308-360 616-360 350 0 568 167 568 544V0h-236v-208h-12zM380-424c-2 171 150 249 324 248 185 3 312-84 382-197 66-107 46-242 50-399-190 112-562 41-708 206-32 35-48 82-48 142" id="R"/><path fill="#333" d="M820 224c-81 228-252 387-559 338-31-6-53-12-65-18l60-208c86 22 158 21 215-2s107-91 149-206L664 8 96-1536h256L776-312h16l424-1224 258 4" id="S"/><path fill="#333" d="M1472-356c-81 240-294 384-612 388-314 0-521-155-630-374-113-227-112-601 0-830 106-217 302-384 606-384 475 0 684 339 660 868H312v-204h944c-7-269-152-447-420-452-198-4-333 114-401 250-58 110-57 222-55 374 4 329 162 540 480 540 202 0 327-90 384-240" id="T"/><path fill="#333" d="M840-1332c-228 7-388 135-388 360V0H216v-1536h228v232h16c48-143 212-258 400-256 29 0 98 1 124 4v240c-30-6-100-18-144-16" id="U"/><path fill="#333" d="M728-176c184 3 360-85 360-240 0-133-100-185-228-216l-256-60c-141-33-244-86-310-156-120-119-130-353-24-494 95-127 270-214 490-214 302 0 467 146 544 364l-212 60c-51-127-146-220-332-220-162 0-326 82-328 228 0 59 21 105 64 139 86 72 291 106 428 141s240 84 307 152c125 117 132 357 25 500C1155-57 969 34 732 32c-311 1-533-140-584-400l224-56c41 161 158 245 356 248" id="V"/><g id="f"><use transform="matrix(0.007891414141414142,0,0,0.007891414141414142,0,0)" xlink:href="#Q"/><use transform="matrix(0.007891414141414142,0,0,0.007891414141414142,12.5,0)" xlink:href="#R"/><use transform="matrix(0.007891414141414142,0,0,0.007891414141414142,25.031565656565657,0)" xlink:href="#S"/><use transform="matrix(0.007891414141414142,0,0,0.007891414141414142,37.42108585858586,0)" xlink:href="#T"/><use transform="matrix(0.007891414141414142,0,0,0.007891414141414142,50.36300505050505,0)" xlink:href="#U"/><use transform="matrix(0.007891414141414142,0,0,0.007891414141414142,58.63320707070707,0)" xlink:href="#V"/></g><g id="g"><use transform="matrix(0.007891414141414142,0,0,0.007891414141414142,0,0)" xlink:href="#R"/><use transform="matrix(0.007891414141414142,0,0,0.007891414141414142,12.531565656565657,0)" xlink:href="#U"/><use transform="matrix(0.007891414141414142,0,0,0.007891414141414142,20.80176767676768,0)" xlink:href="#T"/></g><path fill="#333" d="M844-1344c-250 5-392 162-392 420V0H216v-1536h228v240h20c73-154 217-263 448-260 349 8 519 217 520 580V0h-236v-960c3-231-128-388-352-384" id="W"/><path fill="#333" d="M564 0L96-1536h248L676-360h16l328-1176h252l324 1172h16l332-1172h248L1724 0h-232l-336-1180h-24L796 0H564" id="X"/><g id="h"><use transform="matrix(0.007891414141414142,0,0,0.007891414141414142,0,0)" xlink:href="#W"/><use transform="matrix(0.007891414141414142,0,0,0.007891414141414142,13.005050505050505,0)" xlink:href="#I"/><use transform="matrix(0.007891414141414142,0,0,0.007891414141414142,26.262626262626263,0)" xlink:href="#X"/></g><path fill="#333" d="M216 0v-1536h236V0H216zm288-1952c0 86-81 160-168 160s-168-74-168-160 81-160 168-160 168 74 168 160" id="Y"/><path fill="#333" d="M884-1536v200H88v-200h796zM912-8C806 31 647 29 540-23 419-82 320-195 320-376v-1528h236v1464c-3 157 61 231 204 232 42 1 74-6 104-12" id="Z"/><path fill="#333" d="M856-1344c-254 4-404 159-404 420V0H216v-2048h236v752h20c75-159 213-263 452-260 352 7 524 215 524 580V0h-236v-960c3-234-128-388-356-384" id="aa"/><path fill="#333" d="M800-1556c245-6 363 127 448 264h24v-244h228V44c-3 395-276 558-664 564-313 5-510-121-628-308l188-132c90 123 207 236 440 232 245-5 428-117 428-372v-312h-20c-83 138-204 266-448 260-278-7-463-145-566-344-111-214-110-600-3-820 101-208 286-361 573-368zM380-780c0 315 135 544 448 544 312 0 440-225 440-544s-127-564-440-564c-315 0-448 249-448 564" id="ab"/><path fill="#333" d="M952 32C708 38 588-97 504-236h-28V0H248v-2048h236v756h20c84-136 200-270 444-264 288 7 472 161 573 372 108 226 107 617 0 842-100 211-282 367-569 374zM530-1070c-67 166-66 442 1 608 62 160 181 282 389 282 319 0 448-265 448-588 0-322-129-576-448-576-208 0-329 116-390 274" id="ac"/><path fill="#333" d="M452-2048V0H216v-2048h236" id="ad"/><g id="i"><use transform="matrix(0.007891414141414142,0,0,0.007891414141414142,0,0)" xlink:href="#Y"/><use transform="matrix(0.007891414141414142,0,0,0.007891414141414142,5.271464646464647,0)" xlink:href="#W"/><use transform="matrix(0.007891414141414142,0,0,0.007891414141414142,18.276515151515152,0)" xlink:href="#Z"/><use transform="matrix(0.007891414141414142,0,0,0.007891414141414142,26.357323232323232,0)" xlink:href="#T"/><use transform="matrix(0.007891414141414142,0,0,0.007891414141414142,39.29924242424242,0)" xlink:href="#U"/><use transform="matrix(0.007891414141414142,0,0,0.007891414141414142,47.56944444444444,0)" xlink:href="#J"/><use transform="matrix(0.007891414141414142,0,0,0.007891414141414142,59.974747474747474,0)" xlink:href="#aa"/><use transform="matrix(0.007891414141414142,0,0,0.007891414141414142,73.10606060606061,0)" xlink:href="#R"/><use transform="matrix(0.007891414141414142,0,0,0.007891414141414142,85.63762626262627,0)" xlink:href="#W"/><use transform="matrix(0.007891414141414142,0,0,0.007891414141414142,98.64267676767678,0)" xlink:href="#ab"/><use transform="matrix(0.007891414141414142,0,0,0.007891414141414142,112.18434343434345,0)" xlink:href="#T"/><use transform="matrix(0.007891414141414142,0,0,0.007891414141414142,125.12626262626264,0)" xlink:href="#R"/><use transform="matrix(0.007891414141414142,0,0,0.007891414141414142,137.6578282828283,0)" xlink:href="#ac"/><use transform="matrix(0.007891414141414142,0,0,0.007891414141414142,151.4520202020202,0)" xlink:href="#ad"/><use transform="matrix(0.007891414141414142,0,0,0.007891414141414142,156.72348484848482,0)" xlink:href="#T"/></g><path fill="#333" d="M1244-236C1160-98 1040 38 796 32c-286-7-469-163-569-374-107-225-108-616 0-842 101-211 285-365 573-372 244-6 359 127 444 264h20v-756h236V0h-228v-236h-28zm-664-22c123 99 362 103 488 4 128-101 200-285 200-514 0-227-69-406-198-504-125-96-370-93-492 4-126 100-198 279-198 500 0 223 74 408 200 510" id="ae"/><path fill="#333" d="M920 32C676 38 556-97 472-236h-20v812H216v-2112h228v244h28c84-136 200-270 444-264 288 7 472 161 573 372 108 226 107 617 0 842-100 211-282 367-569 374zM498-1070c-67 166-66 442 1 608 62 160 181 282 389 282 319 0 448-265 448-588 0-322-129-576-448-576-208 0-329 116-390 274" id="af"/><g id="j"><use transform="matrix(0.007891414141414142,0,0,0.007891414141414142,0,0)" xlink:href="#ae"/><use transform="matrix(0.007891414141414142,0,0,0.007891414141414142,13.79419191919192,0)" xlink:href="#T"/><use transform="matrix(0.007891414141414142,0,0,0.007891414141414142,26.736111111111114,0)" xlink:href="#af"/><use transform="matrix(0.007891414141414142,0,0,0.007891414141414142,40.277777777777786,0)" xlink:href="#T"/><use transform="matrix(0.007891414141414142,0,0,0.007891414141414142,53.219696969696976,0)" xlink:href="#W"/><use transform="matrix(0.007891414141414142,0,0,0.007891414141414142,66.22474747474749,0)" xlink:href="#ae"/><use transform="matrix(0.007891414141414142,0,0,0.007891414141414142,80.0189393939394,0)" xlink:href="#Y"/><use transform="matrix(0.007891414141414142,0,0,0.007891414141414142,85.29040404040406,0)" xlink:href="#W"/><use transform="matrix(0.007891414141414142,0,0,0.007891414141414142,98.29545454545456,0)" xlink:href="#ab"/></g><g id="k"><use transform="matrix(0.007891414141414142,0,0,0.007891414141414142,0,0)" xlink:href="#I"/><use transform="matrix(0.007891414141414142,0,0,0.007891414141414142,13.257575757575758,0)" xlink:href="#W"/></g><path fill="#333" d="M392-1536l368 628 368-628h272L904-768 1400 0h-272L760-596 392 0H120l488-768-488-768h272" id="ag"/><path fill="#333" d="M568-164C562-59 494 11 388 16c-95 3-180-85-180-180s85-180 180-180 183 85 180 180" id="ah"/><g id="l"><use transform="matrix(0.007891414141414142,0,0,0.007891414141414142,0,0)" xlink:href="#J"/><use transform="matrix(0.007891414141414142,0,0,0.007891414141414142,12.405303030303031,0)" xlink:href="#I"/><use transform="matrix(0.007891414141414142,0,0,0.007891414141414142,25.66287878787879,0)" xlink:href="#W"/><use transform="matrix(0.007891414141414142,0,0,0.007891414141414142,38.667929292929294,0)" xlink:href="#Z"/><use transform="matrix(0.007891414141414142,0,0,0.007891414141414142,46.74873737373738,0)" xlink:href="#T"/><use transform="matrix(0.007891414141414142,0,0,0.007891414141414142,59.69065656565657,0)" xlink:href="#ag"/><use transform="matrix(0.007891414141414142,0,0,0.007891414141414142,71.68560606060606,0)" xlink:href="#Z"/><use transform="matrix(0.007891414141414142,0,0,0.007891414141414142,79.76641414141415,0)" xlink:href="#ah"/></g></defs></g></svg>