<svg xmlns="http://www.w3.org/2000/svg" xmlns:xlink="http://www.w3.org/1999/xlink" xmlns:lucid="lucid" width="540" height="392.5"><g transform="translate(-260 -147.5)" lucid:page-tab-id="lhs4iZ8chwtm"><path d="M280 206c0-3.3 2.7-6 6-6h148c3.3 0 6 2.7 6 6v108c0 3.3-2.7 6-6 6H286c-3.3 0-6-2.7-6-6z" stroke="#007896" stroke-width="3" fill="#00acd7"/><use xlink:href="#a" transform="matrix(1,0,0,1,292,212) translate(12.286616161616173 57.52777777777777)"/><use xlink:href="#b" transform="matrix(1,0,0,1,292,212) translate(108.6881313131313 57.52777777777777)"/><path d="M620 206c0-3.3 2.7-6 6-6h148c3.3 0 6 2.7 6 6v108c0 3.3-2.7 6-6 6H626c-3.3 0-6-2.7-6-6z" stroke="#007896" stroke-width="3" fill="#00acd7"/><use xlink:href="#c" transform="matrix(1,0,0,1,632,212) translate(12.570707070707059 57.52777777777778)"/><use xlink:href="#d" transform="matrix(1,0,0,1,632,212) translate(108.97222222222223 57.52777777777778)"/><path d="M360 197.5v-33c0-3.3 2.7-6 6-6h328c3.3 0 6 2.7 6 6V180" stroke="#007896" stroke-width="2" fill="none"/><path d="M361 198.5h-2v-1.03h2z" fill="#007896"/><path d="M700 195.26L695.36 181h9.28z" stroke="#007896" stroke-width="2" fill="#007896"/><path d="M440 406c0-3.3 2.7-6 6-6h148c3.3 0 6 2.7 6 6v108c0 3.3-2.7 6-6 6H446c-3.3 0-6-2.7-6-6z" stroke="#007896" stroke-width="3" fill="#00acd7"/><use xlink:href="#a" transform="matrix(1,0,0,1,452,412) translate(11.718434343434353 57.52777777777777)"/><use xlink:href="#e" transform="matrix(1,0,0,1,452,412) translate(108.11994949494948 57.52777777777777)"/><path d="M360 322.5V354c0 3.3 2.7 6 6 6h148c3.3 0 6 2.7 6 6v14" stroke="#5e5e5e" stroke-width="2" fill="none"/><path d="M361 322.53h-2v-1.03h2z" fill="#5e5e5e"/><path d="M520 395.26L515.36 381h9.28z" stroke="#5e5e5e" stroke-width="2" fill="#5e5e5e"/><path d="M700 322.5V354c0 3.3-2.7 6-6 6H526c-3.3 0-6 2.7-6 6v14" stroke="#5e5e5e" stroke-width="2" fill="none"/><path d="M701 322.53h-2v-1.03h2z" fill="#5e5e5e"/><path d="M520 395.26L515.36 381h9.28z" stroke="#5e5e5e" stroke-width="2" fill="#5e5e5e"/><defs><path fill="#fff" d="M1392-1400c0-284-160-428-460-428H496V0H248v-2048h692c313-4 518 120 622 320 49 98 74 207 74 328-13 418-252 652-692 652H448v-220h488c298 2 456-149 456-432" id="f"/><path fill="#fff" d="M1124-208C1047-67 898 39 668 36c-306-9-520-163-524-472-5-429 452-428 824-480 100-15 168-19 168-120 0-203-114-312-324-312-206 0-337 110-400 232l-224-80c96-234 308-360 616-360 350 0 568 167 568 544V0h-236v-208h-12zM380-424c-2 171 150 249 324 248 185 3 312-84 382-197 66-107 46-242 50-399-190 112-562 41-708 206-32 35-48 82-48 142" id="g"/><path fill="#fff" d="M1444-448c-53 291-263 480-604 480-309 0-507-165-612-383-110-230-110-595 2-823 106-216 303-382 606-382 338 0 559 184 608 480h-236c-39-143-171-276-368-268-314 13-455 250-460 576-1 235 79 419 216 515 69 49 151 73 244 73 201-4 323-106 368-268h236" id="h"/><path fill="#fff" d="M436-560l-4-292h48l672-684h292L728-812h-20zM216 0v-2048h236V0H216zm976 0L592-760l168-164L1492 0h-300" id="i"/><path fill="#fff" d="M800-1556c245-6 363 127 448 264h24v-244h228V44c-3 395-276 558-664 564-313 5-510-121-628-308l188-132c90 123 207 236 440 232 245-5 428-117 428-372v-312h-20c-83 138-204 266-448 260-278-7-463-145-566-344-111-214-110-600-3-820 101-208 286-361 573-368zM380-780c0 315 135 544 448 544 312 0 440-225 440-544s-127-564-440-564c-315 0-448 249-448 564" id="j"/><path fill="#fff" d="M1472-356c-81 240-294 384-612 388-314 0-521-155-630-374-113-227-112-601 0-830 106-217 302-384 606-384 475 0 684 339 660 868H312v-204h944c-7-269-152-447-420-452-198-4-333 114-401 250-58 110-57 222-55 374 4 329 162 540 480 540 202 0 327-90 384-240" id="k"/><g id="a"><use transform="matrix(0.00789141414141414,0,0,0.00789141414141414,0,0)" xlink:href="#f"/><use transform="matrix(0.00789141414141414,0,0,0.00789141414141414,14.109848484848483,0)" xlink:href="#g"/><use transform="matrix(0.00789141414141414,0,0,0.00789141414141414,26.64141414141414,0)" xlink:href="#h"/><use transform="matrix(0.00789141414141414,0,0,0.00789141414141414,39.04671717171716,0)" xlink:href="#i"/><use transform="matrix(0.00789141414141414,0,0,0.00789141414141414,51.136363636363626,0)" xlink:href="#g"/><use transform="matrix(0.00789141414141414,0,0,0.00789141414141414,63.66792929292928,0)" xlink:href="#j"/><use transform="matrix(0.00789141414141414,0,0,0.00789141414141414,77.20959595959594,0)" xlink:href="#k"/></g><path fill="#fff" d="M332 0H72l752-2048h256L1832 0h-260L960-1724h-16zm96-800h1048v220H428v-220" id="l"/><use transform="matrix(0.00789141414141414,0,0,0.00789141414141414,0,0)" xlink:href="#l" id="b"/><g id="c"><use transform="matrix(0.007891414141414142,0,0,0.007891414141414142,0,0)" xlink:href="#f"/><use transform="matrix(0.007891414141414142,0,0,0.007891414141414142,14.109848484848486,0)" xlink:href="#g"/><use transform="matrix(0.007891414141414142,0,0,0.007891414141414142,26.641414141414145,0)" xlink:href="#h"/><use transform="matrix(0.007891414141414142,0,0,0.007891414141414142,39.04671717171718,0)" xlink:href="#i"/><use transform="matrix(0.007891414141414142,0,0,0.007891414141414142,51.13636363636364,0)" xlink:href="#g"/><use transform="matrix(0.007891414141414142,0,0,0.007891414141414142,63.6679292929293,0)" xlink:href="#j"/><use transform="matrix(0.007891414141414142,0,0,0.007891414141414142,77.20959595959597,0)" xlink:href="#k"/></g><path fill="#fff" d="M1592-1504c2 253-141 372-332 428v20c246 36 412 223 412 512 0 382-273 545-684 544H248v-2048h716c275-3 464 101 560 270 45 82 68 174 68 274zM496-220h492c162 0 278-31 346-94 119-101 132-282 49-422-68-114-202-196-383-196H496v712zm860-1284c0-207-151-324-392-324H496v680h460c231-7 400-127 400-356" id="m"/><use transform="matrix(0.007891414141414142,0,0,0.007891414141414142,0,0)" xlink:href="#m" id="d"/><path fill="#fff" d="M1072-204c318 0 512-168 576-436h248c-59 318-251 530-532 623-259 86-554 47-758-83-265-169-438-490-438-924s173-755 438-924c204-130 499-169 758-83 281 93 474 305 532 623h-248c-45-213-184-349-380-408-189-57-384-28-532 66-204 130-328 383-328 726 0 344 124 596 328 726 100 63 212 94 336 94" id="n"/><use transform="matrix(0.00789141414141414,0,0,0.00789141414141414,0,0)" xlink:href="#n" id="e"/></defs></g></svg>